:SAMPLES-PER-SECOND 30
:FULLY-SPECIFIED
:DEGREES
113
root  14.668 36.9497 11.3517 -179.222 0.127402 177.378
RightUpLeg  -18.4003 4.59595 1.13951
RightLeg  41.154 -8.09211 -7.80017
RightFoot  -21.6475 0.671057 9.22147
RightToes  2.32829e-010 0 -3.6325e-017
Spine  9.32381 -3.33107 3.58395
Spine1  25.3705 -1.25534 -3.89004
HEad  -19.6522 15.8531 -10.0567
LeftShoulder1  1.51911 -2.45094 -18.9756
LeftArm  9.82228 5.51913 -58.3918
LeftForeArm  77.8274 -79.6949 -75.2319
LeftHand  -2.29823 -3.87164 28.5301
RightShoulder  0.547443 -0.784686 13.2744
RightArm  4.44865 -14.496 56.8656
RightForeArm  123.642 70.412 146.391
RightHand  -0.531348 2.16836 -8.34895
LeftUpLeg  -18.3007 -4.35959 17.2205
LeftLeg  46.2651 12.7322 14.2489
LeftFoot  4.04576 0.827155 -6.2994
LeftToes  -5.54824e-011 -8.71001e-011 8.3852e-012
114
root  13.1628 37.1065 11.53 -179.771 1.40697 177.144
RightUpLeg  -18.5134 4.14169 -2.06752
RightLeg  41.0258 -5.76703 -5.65139
RightFoot  -19.4619 0.74114 12.2091
RightToes  2.32829e-010 0 -3.6325e-017
Spine  10.8952 -3.70099 2.33553
Spine1  25.6668 -2.28113 -2.90079
HEad  -20.4837 16.831 -11.4797
LeftShoulder1  1.72106 -3.1526 -19.3684
LeftArm  7.1873 5.01787 -61.3437
LeftForeArm  74.2614 -79.4558 -68.6009
LeftHand  -2.60189 -4.31702 30.7184
RightShoulder  0.676256 -0.186309 13.5304
RightArm  4.15386 -13.6812 59.2982
RightForeArm  122.218 71.2202 144.679
RightHand  -0.650566 2.42693 -9.85661
LeftUpLeg  -17.3661 -5.46302 18.5569
LeftLeg  42.2459 12.8101 12.5523
LeftFoot  4.37427 0.894019 -6.667
LeftToes  -5.54824e-011 -8.71001e-011 8.3852e-012
115
root  11.6258 37.7087 11.6506 -179.295 2.54639 175.515
RightUpLeg  -18.1465 4.15552 -6.89205
RightLeg  37.6555 -4.81393 -4.26191
RightFoot  -15.8319 0.43338 13.8441
RightToes  2.32829e-010 0 -3.6325e-017
Spine  11.8141 -3.66192 -1.13852
Spine1  25.1994 -3.67556 -0.647842
HEad  -19.8131 17.9715 -12.0783
LeftShoulder1  1.71772 -3.40774 -18.2649
LeftArm  7.8942 6.12608 -64.0014
LeftForeArm  75.6361 -79.5699 -72.6318
LeftHand  -2.77414 -4.28291 32.7475
RightShoulder  0.688508 -0.12758 13.5314
RightArm  5.34097 -14.6665 61.4636
RightForeArm  125.519 71.0241 145.508
RightHand  -0.719322 2.84369 -10.3503
LeftUpLeg  -16.7675 -7.18536 17.2653
LeftLeg  36.3454 12.088 9.76179
LeftFoot  5.9323 1.05197 -7.1552
LeftToes  -5.54824e-011 -8.71001e-011 8.3852e-012
116
root  9.94766 38.4621 11.7138 -177.904 5.03114 174.678
RightUpLeg  -18.0159 5.27905 -11.1536
RightLeg  31.4616 -2.98403 -2.25331
RightFoot  -10.5345 -0.211713 17.1741
RightToes  2.32829e-010 0 -3.6325e-017
Spine  11.8509 -3.51444 -2.34958
Spine1  24.0224 -3.94842 -0.16254
HEad  -18.7913 19.282 -12.3508
LeftShoulder1  1.54674 -3.02815 -16.9982
LeftArm  11.4967 7.81665 -64.6323
LeftForeArm  83.6625 -79.8458 -83.4539
LeftHand  -2.78543 -4.31311 32.7674
RightShoulder  0.664469 -0.23002 13.4276
RightArm  7.41296 -16.8575 62.2062
RightForeArm  132.069 69.8728 148.426
RightHand  -0.754757 3.40703 -10.1865
LeftUpLeg  -16.4004 -7.3203 16.0044
LeftLeg  30.3708 9.77732 6.48937
LeftFoot  8.66688 1.37178 -8.05752
LeftToes  -5.54824e-011 -8.71001e-011 8.3852e-012
117
root  8.19296 39.1045 11.7233 -176.218 9.24337 175.032
RightUpLeg  -18.7981 5.93667 -13.9553
RightLeg  24.9658 -0.795881 -0.60025
RightFoot  -3.54358 -1.4012 20.2007
RightToes  2.32829e-010 0 -3.6325e-017
Spine  12.0381 -3.11679 -1.68071
Spine1  21.8551 -3.09875 -1.18237
HEad  -18.3965 21.051 -12.8718
LeftShoulder1  1.38521 -2.52594 -16.233
LeftArm  14.9346 10.1463 -63.7333
LeftForeArm  97.6539 -79.965 -95.5024
LeftHand  -2.74574 -4.72049 31.108
RightShoulder  0.712019 0.0677992 13.0262
RightArm  9.39227 -19.2113 61.4571
RightForeArm  137.715 68.2949 151.522
RightHand  -0.764719 3.81766 -9.88103
LeftUpLeg  -15.7626 -6.14662 15.5615
LeftLeg  25.5893 6.22719 3.56966
LeftFoot  11.1683 1.901 -9.86141
LeftToes  -5.54824e-011 -8.71001e-011 8.3852e-012
118
root  6.49165 39.441 11.7099 -175.043 14.1987 175.181
RightUpLeg  -20.5408 4.6741 -16.0675
RightLeg  21.5643 -1.81317 -0.996694
RightFoot  2.69251 -2.34644 19.1763
RightToes  2.32829e-010 0 -3.6325e-017
Spine  12.9412 -2.1936 -2.37769
Spine1  19.1151 -2.15386 -1.34286
HEad  -18.6084 23.1864 -13.4802
LeftShoulder1  1.32584 -2.44414 -15.4921
LeftArm  16.6252 13.1886 -62.668
LeftForeArm  111.249 -79.7788 -105.875
LeftHand  -2.82343 -5.27321 30.3622
RightShoulder  0.793547 0.608913 12.2922
RightArm  10.623 -21.0171 60.2911
RightForeArm  140.319 66.8266 153.718
RightHand  -0.74174 3.88197 -9.53064
LeftUpLeg  -14.5318 -6.52653 14.9243
LeftLeg  22.4693 3.52414 1.91729
LeftFoot  11.3521 2.59068 -13.2376
LeftToes  -5.54824e-011 -8.71001e-011 8.3852e-012
119
root  4.83583 39.3859 11.7158 -174.99 18.8776 174.655
RightUpLeg  -22.4119 1.72418 -17.8952
RightLeg  22.2661 -5.92007 -2.90605
RightFoot  5.70637 -2.36321 15.8656
RightToes  2.32829e-010 0 -3.6325e-017
Spine  14.0551 -1.12109 -4.3837
Spine1  16.8755 -1.47195 -0.784276
HEad  -18.8877 25.1369 -13.6976
LeftShoulder1  1.30187 -2.58507 -14.487
LeftArm  17.8023 15.9233 -61.4156
LeftForeArm  119.539 -79.068 -115.414
LeftHand  -2.91358 -5.32175 31.1528
RightShoulder  0.817594 0.888323 11.5224
RightArm  10.9008 -22.1685 59.7523
RightForeArm  140.765 65.6082 155.155
RightHand  -0.70517 3.74588 -9.20318
LeftUpLeg  -12.7322 -9.09213 13.5268
LeftLeg  21.2123 3.1388 1.67516
LeftFoot  7.52349 2.91093 -17.7889
LeftToes  -5.54824e-011 -8.71001e-011 8.3852e-012
120
root  3.17852 38.9048 11.7579 -175.967 22.833 174.227
RightUpLeg  -23.7888 -1.95486 -19.1747
RightLeg  26.1536 -7.79686 -4.34293
RightFoot  4.99431 -2.23407 15.7497
RightToes  2.32829e-010 0 -3.6325e-017
Spine  15.0528 -0.566322 -5.42412
Spine1  15.8463 -0.786639 -1.65654
HEad  -19.3079 26.5468 -13.7324
LeftShoulder1  1.20535 -2.30568 -13.7944
LeftArm  19.5785 16.7283 -59.376
LeftForeArm  121.627 -78.1619 -121.906
LeftHand  -2.9066 -5.01363 31.9455
RightShoulder  0.781668 0.810954 10.9692
RightArm  10.3221 -22.5172 59.8564
RightForeArm  140.318 64.5257 156.238
RightHand  -0.673122 3.51238 -9.01347
LeftUpLeg  -11.0337 -10.1388 11.6442
LeftLeg  22.4275 3.25748 1.81102
LeftFoot  -0.461768 2.08173 -21.6162
LeftToes  -5.54824e-011 -8.71001e-011 8.3852e-012
121
root  1.53664 38.101 11.846 -177.6 26.167 174.064
RightUpLeg  -24.7104 -4.83143 -20.2487
RightLeg  31.7453 -5.24922 -3.68383
RightFoot  1.81109 -2.27547 19.7561
RightToes  2.32829e-010 0 -3.6325e-017
Spine  15.8194 -0.371051 -5.68541
Spine1  16.3692 -0.0985366 -3.57651
HEad  -20.8029 27.4531 -14.4136
LeftShoulder1  1.08001 -1.64976 -14.0309
LeftArm  20.8801 14.7522 -57.1364
LeftForeArm  117.531 -78.1788 -120.477
LeftHand  -2.90759 -4.83808 32.4692
RightShoulder  0.730724 0.570787 10.7719
RightArm  9.0713 -21.3725 59.9727
RightForeArm  139.001 63.7479 156.869
RightHand  -0.620721 3.0502 -8.75534
LeftUpLeg  -10.3512 -7.021 9.53364
LeftLeg  26.2238 1.7088 1.23864
LeftFoot  -10.4315 0.26923 -22.2594
LeftToes  -5.54824e-011 -8.71001e-011 8.3852e-012
122
root  -0.00486329 37.1981 11.9913 -179.708 29.0918 173.31
RightUpLeg  -25.4673 -5.46179 -21.9441
RightLeg  37.6027 -2.41057 -2.28245
RightFoot  -2.72062 -1.83892 23.799
RightToes  2.32829e-010 0 -3.6325e-017
Spine  16.0242 0.151486 -7.0643
Spine1  18.6158 0.409457 -4.34438
HEad  -23.7388 27.8217 -15.9661
LeftShoulder1  1.09955 -1.52682 -14.9885
LeftArm  20.1619 10.7216 -55.6234
LeftForeArm  105.232 -79.2313 -108.178
LeftHand  -2.95253 -4.70612 33.3502
RightShoulder  0.684419 0.251367 11.1099
RightArm  7.38605 -18.5202 60.0834
RightForeArm  136.672 63.7715 156.613
RightHand  -0.564776 2.48782 -8.53037
LeftUpLeg  -11.1691 -1.96389 6.97258
LeftLeg  31.8823 -0.392777 0.111448
LeftFoot  -19.1775 -1.2179 -19.3826
LeftToes  -5.54824e-011 -8.71001e-011 8.3852e-012
123
root  -1.36506 36.5452 12.1674 178.126 31.5306 171.829
RightUpLeg  -25.6777 -4.25683 -23.8865
RightLeg  41.6643 -3.41637 -3.56447
RightFoot  -7.42164 -0.933071 25.1435
RightToes  2.32829e-010 0 -3.6325e-017
Spine  15.701 0.95472 -9.24072
Spine1  21.7274 0.81109 -3.99532
HEad  -26.6627 27.5351 -17.4907
LeftShoulder1  1.32144 -2.33031 -15.8755
LeftArm  17.4738 6.4811 -54.8279
LeftForeArm  87.3982 -79.7973 -89.8618
LeftHand  -2.87044 -4.28118 33.8078
RightShoulder  0.659398 -0.0219014 11.9054
RightArm  5.89919 -15.361 60.9587
RightForeArm  134.31 64.6825 155.461
RightHand  -0.617907 2.45663 -9.32028
LeftUpLeg  -12.6592 1.57097 3.98858
LeftLeg  36.9075 -0.83229 -0.258693
LeftFoot  -24.0994 -1.66426 -15.9889
LeftToes  -5.54824e-011 -8.71001e-011 8.3852e-012
124
root  -2.52755 36.4006 12.3197 176.862 33.4453 171.059
RightUpLeg  -24.7839 -2.91882 -24.2624
RightLeg  42.7358 -8.25212 -8.31911
RightFoot  -10.3782 -0.274577 23.6977
RightToes  2.32829e-010 0 -3.6325e-017
Spine  15.4094 1.31886 -9.63262
Spine1  24.0006 1.3236 -4.16531
HEad  -27.5824 26.9421 -18.0875
LeftShoulder1  1.5315 -3.14534 -16.3038
LeftArm  14.2015 3.78675 -54.6005
LeftForeArm  77.2879 -79.6443 -79.2648
LeftHand  -2.60896 -3.76082 32.5422
RightShoulder  0.675613 -0.0551264 12.6328
RightArm  5.60315 -13.7154 62.7767
RightForeArm  133.559 65.7822 154.192
RightHand  -0.855168 3.2969 -11.6042
LeftUpLeg  -13.7614 2.92163 1.79783
LeftLeg  39.1996 0.232775 0.601105
LeftFoot  -24.9841 -1.58722 -14.4318
LeftToes  -5.54824e-011 -8.71001e-011 8.3852e-012
125
root  -3.44612 36.8204 12.4528 177.089 35.0928 171.875
RightUpLeg  -22.8988 -2.80724 -22.0014
RightLeg  41.0381 -13.9117 -12.8747
RightFoot  -10.5511 -0.205579 20.0675
RightToes  2.32829e-010 0 -3.6325e-017
Spine  15.2918 1.10119 -7.81209
Spine1  24.6248 1.90013 -5.13168
HEad  -26.3316 26.7571 -17.9477
LeftShoulder1  1.49076 -2.91668 -16.5033
LeftArm  11.7968 3.34491 -55.2168
LeftForeArm  80.1487 -79.7413 -80.8253
LeftHand  -2.37906 -3.61315 30.3108
RightShoulder  0.716285 0.113086 12.8709
RightArm  7.0356 -13.8413 64.4285
RightForeArm  135.35 66.3068 153.777
RightHand  -1.16217 4.41886 -13.9862
LeftUpLeg  -13.816 3.36313 1.2376
LeftLeg  37.7858 1.62164 1.73176
LeftFoot  -22.8884 -1.30769 -14.2343
LeftToes  -5.54824e-011 -8.71001e-011 8.3852e-012
126
root  -4.10085 37.6224 12.6172 178.618 36.6145 173.574
RightUpLeg  -20.8473 -4.20079 -18.0046
RightLeg  37.166 -16.2752 -13.1213
RightFoot  -9.3138 -0.36751 16.9849
RightToes  2.32829e-010 0 -3.6325e-017
Spine  14.8435 0.887098 -5.78996
Spine1  24.2983 2.2301 -5.43747
HEad  -24.4894 27.3499 -17.742
LeftShoulder1  1.25846 -1.89908 -16.5696
LeftArm  10.7357 4.82198 -56.6141
LeftForeArm  90.1473 -79.9345 -89.4915
LeftHand  -2.32557 -3.84657 28.9457
RightShoulder  0.736189 0.241559 12.7009
RightArm  9.6915 -14.7055 64.8594
RightForeArm  139.113 66.0593 154.472
RightHand  -1.29819 5.04985 -14.6624
LeftUpLeg  -13.2997 3.89775 1.77663
LeftLeg  33.4712 2.68749 2.28251
LeftFoot  -18.7517 -0.808677 -14.125
LeftToes  -5.54824e-011 -8.71001e-011 8.3852e-012
